<?xml version="1.0" encoding="UTF-8" standalone="no"?>
<!--
  This is the Glypht logo in "source format" (to be edited in Inkscape).
  The web version of the logo is in glypht-web/src/assets/icons/logo-plain.svg.
-->
<svg
   width="64"
   height="64"
   viewBox="0 0 64 64"
   version="1.1"
   id="svg8"
   inkscape:version="1.4.2 (ebf0e940d0, 2025-05-08)"
   sodipodi:docname="icon-full.svg"
   inkscape:export-filename="/tmp/abcd-favicon-3.png"
   inkscape:export-xdpi="768"
   inkscape:export-ydpi="768"
   xml:space="preserve"
   xmlns:inkscape="http://www.inkscape.org/namespaces/inkscape"
   xmlns:sodipodi="http://sodipodi.sourceforge.net/DTD/sodipodi-0.dtd"
   xmlns="http://www.w3.org/2000/svg"
   xmlns:svg="http://www.w3.org/2000/svg"
   xmlns:rdf="http://www.w3.org/1999/02/22-rdf-syntax-ns#"
   xmlns:cc="http://creativecommons.org/ns#"
   xmlns:dc="http://purl.org/dc/elements/1.1/"><defs
     id="defs2"><inkscape:path-effect
       effect="fillet_chamfer"
       id="path-effect10"
       is_visible="true"
       lpeversion="1"
       nodesatellites_param="F,0,0,1,0,0,0,1 @ F,0,0,1,0,0,0,1 @ F,0,0,1,0,0,0,1 @ F,0,0,1,0,0,0,1 | F,0,0,1,0,0,0,1 @ F,0,0,1,0,0,0,1 @ F,0,0,1,0,0,0,1 @ F,0,0,1,0,0,0,1 @ F,0,0,1,0,0,0,1 @ F,0,0,1,0,0,0,1 @ F,0,0,1,0,0,0,1 @ F,0,0,1,0,0,0,1 @ F,0,0,1,0,0,0,1 @ F,0,0,1,0,0.3,0,1 @ F,0,1,1,0,0,0,1 @ F,0,0,1,0,0,0,1 @ F,0,0,1,0,0,0,1 | F,0,0,1,0,0,0,1 @ F,0,0,1,0,0,0,1 @ F,0,0,1,0,0,0,1 @ F,0,0,1,0,0,0,1 @ F,0,0,1,0,0,0,1 @ F,0,0,1,0,0,0,1"
       radius="0.25"
       unit="px"
       method="bezier"
       mode="F"
       chamfer_steps="1"
       flexible="false"
       use_knot_distance="true"
       apply_no_radius="true"
       apply_with_radius="true"
       only_selected="true"
       hide_knots="false" /><inkscape:path-effect
       effect="offset"
       id="path-effect9"
       is_visible="true"
       lpeversion="1.3"
       linejoin_type="miter"
       unit="mm"
       offset="0"
       miter_limit="4"
       attempt_force_join="false"
       update_on_knot_move="true" /><inkscape:path-effect
       effect="fillet_chamfer"
       id="path-effect8"
       is_visible="true"
       lpeversion="1"
       nodesatellites_param="F,0,0,1,0,0,0,1 @ F,0,0,1,0,0,0,1 @ F,0,0,1,0,0,0,1 @ F,0,0,1,0,0,0,1 | F,0,0,1,0,0,0,1 @ F,0,0,1,0,0,0,1 @ F,0,0,1,0,0,0,1 @ F,0,0,1,0,0,0,1 @ F,0,0,1,0,0,0,1 @ F,0,0,1,0,0,0,1 @ F,0,0,1,0,0,0,1 @ F,0,0,1,0,0,0,1 @ F,0,0,1,0,0,0,1 @ F,0,0,1,0,0.29999997,0,1 @ F,0,0,1,0,0,0,1 @ F,0,0,1,0,0,0,1 @ F,0,0,1,0,0,0,1 | F,0,0,1,0,0,0,1 @ F,0,0,1,0,0,0,1 @ F,0,0,1,0,0,0,1 @ F,0,0,1,0,0,0,1 @ F,0,0,1,0,0,0,1 @ F,0,0,1,0,0,0,1"
       radius="0"
       unit="px"
       method="bezier"
       mode="F"
       chamfer_steps="1"
       flexible="false"
       use_knot_distance="true"
       apply_no_radius="true"
       apply_with_radius="true"
       only_selected="false"
       hide_knots="false" /><linearGradient
       id="swatch6"
       inkscape:swatch="solid"><stop
         style="stop-color:#000000;stop-opacity:1;"
         offset="0"
         id="stop6" /></linearGradient></defs><sodipodi:namedview
     id="base"
     pagecolor="#ffffff"
     bordercolor="#666666"
     borderopacity="1.0"
     inkscape:pageopacity="0.0"
     inkscape:pageshadow="2"
     inkscape:zoom="8"
     inkscape:cx="54.125"
     inkscape:cy="31.4375"
     inkscape:document-units="px"
     inkscape:current-layer="layer1"
     inkscape:document-rotation="0"
     showgrid="true"
     units="px"
     inkscape:window-width="2560"
     inkscape:window-height="1388"
     inkscape:window-x="0"
     inkscape:window-y="27"
     inkscape:window-maximized="1"
     inkscape:showpageshadow="2"
     inkscape:pagecheckerboard="0"
     inkscape:deskcolor="#d1d1d1"><inkscape:grid
       type="xygrid"
       id="grid833"
       empspacing="8"
       originx="0"
       originy="0"
       spacingy="1"
       spacingx="1"
       units="px"
       visible="true" /></sodipodi:namedview><metadata
     id="metadata5"><rdf:RDF><cc:Work
         rdf:about=""><dc:format>image/svg+xml</dc:format><dc:type
           rdf:resource="http://purl.org/dc/dcmitype/StillImage" /></cc:Work></rdf:RDF></metadata><g
     inkscape:label="Layer 1"
     inkscape:groupmode="layer"
     id="layer1"><rect
       style="fill:#161518;fill-opacity:1;stroke:none;stroke-width:0.25;stroke-miterlimit:32;stroke-dasharray:none;stroke-opacity:1;paint-order:stroke fill markers"
       id="rect13"
       width="16"
       height="16"
       x="0"
       y="0"
       rx="2"
       ry="2"
       transform="scale(4)" /><path
       id="path6"
       style="baseline-shift:baseline;display:inline;overflow:visible;opacity:1;vector-effect:none;fill:#f8f1e6;fill-opacity:1;stroke-width:0.25;stroke-miterlimit:32;paint-order:stroke fill markers;enable-background:accumulate;stop-color:#000000;stop-opacity:1"
       transform="matrix(4,0,0,4,-0.632812,0.20000052)"
       d="m 7.5551121,8.2097001 -0.3969091,0.4902998 6,10e-8 V 8.2 Z M 3.458203,13.25 l 8.5,-9.7 c 0,0 0.2,0.038171 0.2,1.3999999 V 12.45 c 0,0.7 -0.5,1.299999 -1.5,1.3 -0.2,0 -0.2,0.2 0,0.2 h 5 c 0.2,0 0.2,-0.2 0,-0.2 -1,-10e-7 -1.5,-0.6 -1.5,-1.3 V 1.9999999 c 0,-0.1656854 -0.115958,-0.2321621 -0.261421,-0.1528489 -0.602432,0.3284759 -1.274254,0.6267182 -1.768266,0.8106614 -0.209552,0.078026 -0.431986,0.3308056 -0.570313,0.4921875 l -8.4,9.8000001 m 0.4665441,-0.544301 c -0.6,0.6 -1.2673693,1.303685 -2.2665441,1.344301 -0.1921895,0.0078 -0.2,0.2 0,0.2 h 3.3000001 c 0.2,0 0.2,-0.2 0,-0.2 -0.2,0 -1.0263646,-0.654619 -0.6263645,-1.154619"
       sodipodi:nodetypes="cccccccssssssscsscccsssc"
       inkscape:path-effect="#path-effect10"
       inkscape:original-d="m 7.5551121,8.2097001 -0.3969091,0.4902998 6,10e-8 V 8.2 Z M 3.458203,13.25 l 8.5,-9.7 c 0,0 0.2,0.038171 0.2,1.3999999 V 12.45 c 0,0.7 -0.5,1.299999 -1.5,1.3 -0.2,0 -0.2,0.2 0,0.2 h 5 c 0.2,0 0.2,-0.2 0,-0.2 -1,-10e-7 -1.5,-0.6 -1.5,-1.3 V 1.6999999 C 13.496541,2.085098 12.695442,2.4467198 12.128516,2.6578124 11.918964,2.7358382 11.69653,2.988618 11.558203,3.1499999 l -8.4,9.8000001 m 0.4665441,-0.544301 c -0.6,0.6 -1.2673693,1.303685 -2.2665441,1.344301 -0.1921895,0.0078 -0.2,0.2 0,0.2 h 3.3000001 c 0.2,0 0.2,-0.2 0,-0.2 -0.2,0 -1.0263646,-0.654619 -0.6263645,-1.154619" /><path
       id="path7"
       style="baseline-shift:baseline;display:inline;overflow:visible;opacity:1;vector-effect:none;fill:#f8f1e6;fill-opacity:1;stroke-width:0.25;stroke-miterlimit:32;paint-order:stroke fill markers;enable-background:accumulate;stop-color:#000000;stop-opacity:1"
       transform="matrix(-4,0,0,-4,64.632812,43.8)"
       d="M 9.6269872,5.7097002 9.2300781,6.2 H 13.158203 V 5.7 Z M 7.9184216,8.2695313 11.958203,3.55 c 0,0 0.2,0.038171 0.2,1.3999999 V 7.45 c 0,0.7 0,1.299999 -1,1.3 -0.2,0 -0.2,0.2 0,0.2 h 4 c 0.2,0 0.2,-0.2 0,-0.2 -1,-10e-7 -1,-0.6 -1,-1.3 V 2 c 0,-0.1656854 -0.114452,-0.2296709 -0.25767,-0.1463693 -0.62961,0.3662071 -1.293534,0.6862233 -1.881393,0.8963692 -0.218488,0.078104 -0.330758,0.2484411 -0.460937,0.4 L 7.5192029,7.8523437 M 7.983687,7.3115752 c -0.6,0.6 -1.2653093,1.3001526 -2.2644841,1.3407686 -0.1921895,0.0078 -0.1999999,0.1999999 0,0.1999999 h 3.3000002 c 0.2,0 0.2,-0.1999999 0,-0.1999999 -0.2,0 -0.9214462,-0.5596292 -0.5214461,-1.0596293"
       sodipodi:nodetypes="cccccccssssssscsscccsssc"
       inkscape:path-effect="#path-effect8"
       inkscape:original-d="M 9.6269872,5.7097002 9.2300781,6.2 H 13.158203 V 5.7 Z M 7.9184216,8.2695313 11.958203,3.55 c 0,0 0.2,0.038171 0.2,1.3999999 V 7.45 c 0,0.7 0,1.299999 -1,1.3 -0.2,0 -0.2,0.2 0,0.2 h 4 c 0.2,0 0.2,-0.2 0,-0.2 -1,-10e-7 -1,-0.6 -1,-1.3 V 1.7 c -0.703125,0.4296875 -1.470313,0.8109374 -2.139063,1.0499999 -0.218488,0.078104 -0.330758,0.2484411 -0.460937,0.4 L 7.5192029,7.8523437 M 7.983687,7.3115752 c -0.6,0.6 -1.2653093,1.3001526 -2.2644841,1.3407686 -0.1921895,0.0078 -0.1999999,0.1999999 0,0.1999999 h 3.3000002 c 0.2,0 0.2,-0.1999999 0,-0.1999999 -0.2,0 -0.9214462,-0.5596292 -0.5214461,-1.0596293" /></g></svg>
