<svg xmlns="http://www.w3.org/2000/svg" width="64" height="64" viewBox="0 0 64 64"><path fill="#f8f1e6" d="M55.4 7.46q-.189.014-.408.131c-2.41 1.31-5.1 2.51-7.07 3.24-.838.312-1.73 1.32-2.28 1.97l-31.7 37h-.002c-2.4 2.4-5.07 5.21-9.06 5.38-.769.031-.8.801 0 .801h13.2c.8 0 .8-.801 0-.801s-4.11-2.62-2.51-4.62l13.7-15.6h18.9v15c0 2.8-2 5.2-6 5.2-.8 0-.8.801 0 .801h20c.8 0 .8-.801 0-.801-4 0-6-2.4-6-5.2v-41.8c0-.497-.261-.77-.637-.742zM4 8.003c-.8 0-.8.801 0 .801 4 0 4 2.4 4 5.2v21.8c0 .663.458.917 1.03.584 2.52-1.46 5.17-2.74 7.53-3.58.874-.312 1.32-.995 1.84-1.6l14.3-16.7c2.4-2.4 5.06-5.19 9.04-5.35.769-.031.8-.801 0-.801h-13.2c-.8 0-.8.801 0 .801s3.69 2.24 2.09 4.24l-4.77 5.57h-9.87v-5c0-2.8 0-5.2 4-5.2.8 0 .8-.801 0-.801zm43.2 6.4s.801.152.801 5.6v13l-17.1.03zm-23 6.57-7.39 8.63s-.801-.152-.801-5.6v-3.01z"/></svg>