<svg xmlns="http://www.w3.org/2000/svg" width="128" height="128"><path fill="#fcc21b" d="M125.74 74.99c7.79-29.66-8.507-56.66-38.005-62.083C24.313 1.249-3.8 53.67.83 94.54c0 13.63 28.17 24.69 62.93 24.69 32.58 0 59.37-9.73 62.59-22.17q.33-1.245.33-2.52c.01-6.48-4.12-7.46-.94-19.55"/><path fill="#2f2f2f" d="M28.073 42.118c2.28-4.54 7.2-6.69 10.99-4.84 3.78 1.86 5.01 7.03 2.74 11.56s-7.18 6.69-10.97 4.83c-3.78-1.86-5.02-7.04-2.76-11.55M93.541 53.449c-1.09 5.07-5.41 8.47-9.65 7.59-4.27-.89-6.84-5.72-5.77-10.79 1.09-5.08 5.41-8.48 9.67-7.59 4.25.87 6.83 5.69 5.75 10.79"/><path fill="#fcc21b" d="M10.415 46.678c1.349-9.29 1.124-28.397 2.622-35.664C14.536 3.746 17.721.823 25.1 6.594c6.955 5.439 12.337 10.322 14.386 11.528M102.41 18.649c5.563-3.656 14.517-8 18.119-8.636 3.548-.626 7.682-.212 7.1 5.404-.678 6.53-3.391 20.132-3.286 27.338"/><path fill="none" stroke="#2f2f2f" stroke-linecap="round" stroke-linejoin="round" stroke-width="6" d="M38.677 63.99c1.309 4.264 4.257 11.373 6.04 13.249 2.967-2.225 9.093-8.665 9.94-9.725 2.506 2.594 5.863 8.868 8.59 12.043 3.39-2.119 9.473-7.929 11.28-9.673"/><path fill="#2f2f2f" d="M28.621 61.813c.317 3.329-20.531 2.594-20.455 1.124.08-1.53 20.224-3.549 20.455-1.124M25.699 70.3c2.007 2.675-19.201 12.794-20.05 10.383-.706-2.005 19.418-11.226 20.05-10.383M89.517 69.914c.45-3.314 20.957 2.485 20.548 3.9-.426 1.472-20.875-1.486-20.548-3.9M88.278 79.466c.905-.914 19.818 10.186 18.207 11.94-2.587 2.817-19.439-10.697-18.207-11.94"/></svg>